<svg version="1" xmlns="http://www.w3.org/2000/svg" width="682.667" height="682.667" viewBox="0 0 512.000000 512.000000"><path d="M104.5 1.1C59.2 7 20.3 39.3 6.1 82.9.2 101 .5 91.7.5 256c0 164.3-.3 155 5.6 173.1C17.8 465 47 494.2 82.9 505.9c18.1 5.9 8.8 5.6 173.1 5.6 164.3 0 155 .3 173.1-5.6 35.9-11.7 65.1-40.9 76.8-76.8 5.9-18.1 5.6-8.8 5.6-173.1 0-164.3.3-155-5.6-173.1C494.2 47 464.7 17.6 429 6.1 410.8.2 421.9.6 260 .4c-84.4-.1-151.5.2-155.5.7zm7.7 176.5c2.8 1.5 3.5 1.5 9.2-.2 13.5-4 32.8-1.5 44.1 5.7 4.7 3 5 3.1 7.5 1.4 22.8-14.9 53.6-11.2 71.4 8.6 5.5 6.2 8.8 11.7 11.8 19.9 2.2 6.4 2.3 7.2 2.6 54.8.3 41.9.1 49-1.3 53.8-2.1 7.4-7.5 12.8-15 14.9-5 1.5-6 1.5-10.9.1-6.5-1.9-10.9-5.4-13.9-11-2.2-4-2.2-5-2.7-52.9l-.5-48.9-2.8-2.4c-3.5-3-11.1-3.3-14.2-.6-5.2 4.3-5 2.4-5.5 53.1l-.5 47.6-2.8 4.8c-3.2 5.3-8.1 9-14.5 10.7-8.5 2.2-18.9-2.8-23.5-11.4-2.2-4-2.2-5-2.7-52.9l-.5-48.9-2.8-2.4c-5.9-5.1-15.9-2.3-18.7 5.1-.6 1.6-1 20.1-1 46.9 0 50.8-.1 51.7-7.3 58.3-11.7 10.8-30.8 5.9-35.2-9-1.3-4.3-1.5-14.7-1.5-66.1 0-37.9.4-62.5 1-64.7 3.7-13.3 18.5-20.4 30.2-14.3zm258.3-.1c3.3.9 9.2 3.2 13.2 5l7.1 3.3 3.8-4c8.2-8.3 20.4-8.5 29.1-.5 7.5 6.9 7.4 5.5 7.1 77.8l-.3 63.4-2.8 4.7c-5.9 10.1-18.8 13.4-29 7.5-2.6-1.5-5.4-3.9-6.3-5.2l-1.5-2.3-7.2 3.2c-12.8 5.8-18.7 7-34.2 7-16.5 0-22.6-1.3-36-7.9-16.6-8.2-29.1-20.7-37-37-6.6-13.6-7.9-19.6-7.9-36 0-15.7 1.3-22 7-34.3 10.7-23.2 31.6-40 56.9-45.6 8.9-2 29.3-1.5 38 .9z"/><path d="M340.7 219c-11.1 2.8-20.9 11-26 21.8-2.8 6-3.2 7.7-3.2 15.7 0 8 .4 9.7 3.2 15.7 4 8.5 10.6 15.1 19.1 19.1 6 2.8 7.7 3.2 15.7 3.2 8 0 9.7-.4 15.5-3.1 8.3-3.9 15.5-11.1 19.3-19.2 2.6-5.6 3-7.5 3-15.6.1-8.3-.3-9.9-3-15.9-6.2-13.1-18.4-21.5-32.5-22.2-4-.3-9 0-11.1.5z"/></svg>