<?xml version="1.0" standalone="no"?>
<!DOCTYPE svg PUBLIC "-//W3C//DTD SVG 20010904//EN"
 "http://www.w3.org/TR/2001/REC-SVG-20010904/DTD/svg10.dtd">
<svg version="1.0" xmlns="http://www.w3.org/2000/svg"
 width="512.000000pt" height="512.000000pt" viewBox="0 0 512.000000 512.000000"
 preserveAspectRatio="xMidYMid meet">
<metadata>
Created by potrace 1.11, written by Peter Selinger 2001-2013
</metadata>
<g transform="translate(0.000000,512.000000) scale(0.100000,-0.100000)"
fill="#000000" stroke="none">
<path d="M2235 5095 c-568 -75 -1075 -324 -1480 -730 -406 -405 -655 -912
-731 -1485 -29 -225 -21 -555 21 -782 164 -888 786 -1626 1639 -1943 135 -50
336 -100 507 -126 203 -31 532 -31 738 0 282 43 499 110 756 236 276 135 449
259 676 485 413 410 650 886 735 1475 24 163 23 503 0 670 -84 592 -350 1112
-776 1518 -405 385 -910 620 -1475 686 -122 15 -487 12 -610 -4z m453 -1057
c7 -7 12 -44 12 -94 l0 -83 58 -6 c31 -4 101 -15 154 -26 542 -107 889 -527
949 -1145 l12 -124 77 0 c46 0 81 -5 88 -12 16 -16 16 -150 0 -166 -9 -9 -103
-12 -358 -13 -213 0 -334 -4 -316 -9 33 -10 46 -25 46 -55 0 -13 -206 -226
-609 -629 l-609 -609 -236 188 c-178 141 -235 192 -231 204 4 9 16 61 27 116
23 118 20 311 -6 409 -22 77 -66 169 -109 226 -52 69 -53 77 -8 121 l39 39
-280 0 c-173 0 -287 4 -299 10 -16 9 -19 22 -19 83 0 44 5 78 12 85 7 7 43 12
90 12 74 0 78 1 78 23 1 120 38 322 85 463 152 458 478 727 970 800 l115 18 0
81 c0 50 5 86 12 93 8 8 51 12 128 12 77 0 120 -4 128 -12z"/>
<path d="M1819 2353 c82 -41 190 -164 288 -331 64 -109 91 -136 148 -152 54
-15 106 -7 184 31 64 29 109 62 291 208 173 139 273 199 400 242 54 18 46 18
-645 18 -659 1 -698 0 -666 -16z"/>
</g>
</svg>
